# xmcd CD database file generated by MAGIX-FreeDB-MP3_Maker_12 v2.0beta1
# 
# Track frame offsets:
#      150
#      13179
#      28464
#      41704
#      57107
#      70888
#      85485
#      98212
#      114309
#      129225
#      146418
#      164216
#      179290
#      192599
#      207206
#      223721
# 
# Disc length: 3178 seconds
# 
# Revision: 1 
# Processed by: cddbd v1.5.2PL0 Copyright (c) Steve Scherf et al.
# Submitted via: MAGIX-FreeDB-MP3_Maker_12 v2.0beta1
# 
DISCID=f30c6810
DTITLE=Die Flippers - Immer wieder Liebe
DYEAR=2010
DGENRE=Schlager
TTITLE0=Die Flippers - Du hast die schönsten Augen
TTITLE1=Die Flippers - Wenn in Rom die Rosen blühen
TTITLE2=Die Flippers - Du hast ja geweint Senorita
TTITLE3=Die Flippers - Mädchen von Capri
TTITLE4=Die Flippers - Wenn wir beide tanzen gehen
TTITLE5=Die Flippers - Sayonara
TTITLE6=Die Flippers - Rolling Home
TTITLE7=Die Flippers - Napoli
TTITLE8=Die Flippers - Die weissen Mühlen von Rhodos
TTITLE9=Die Flippers - Schenk mir ein paar Worte
TTITLE10=Die Flippers - Ein Sommer lang auf Mallorca
TTITLE11=Die Flippers - El Matador
TTITLE12=Die Flippers - Es ist so schön dass du da bist
TTITLE13=Die Flippers - Mädchen von Palma de Mallorca
TTITLE14=Die Flippers - Liebe ist mehr als nur eine Nacht
TTITLE15=Die Flippers - In Venedig ist Maskenball
EXTD=YEAR: 2010
EXTT0=
EXTT1=
EXTT2=
EXTT3=
EXTT4=
EXTT5=
EXTT6=
EXTT7=
EXTT8=
EXTT9=
EXTT10=
EXTT11=
EXTT12=
EXTT13=
EXTT14=
EXTT15=
PLAYORDER=
